# Blender v2.90.1 OBJ File: ''
# www.blender.org
mtllib Stone03.mtl
o Cube_Cube.001
v -1.873696 1.130895 1.072572
v 1.416371 1.373838 0.141964
v 0.351025 1.573019 1.434730
v 0.071678 -1.349841 1.821038
v -1.434958 -1.196321 -0.580737
v -1.292744 1.749365 -1.419980
v -0.041549 2.103164 -2.097444
v 1.462658 -1.304201 0.742927
v -1.096647 0.819857 1.801604
v 1.312402 -0.970645 -1.696780
v 1.397267 -1.092699 1.229827
v -1.612853 -0.983808 -1.042365
v 0.642738 2.007167 -1.522278
v 1.112228 0.876017 -1.692162
v -1.019289 -0.816028 1.983895
v -0.544891 2.093393 -1.482456
v -0.296152 1.925113 1.008510
v 1.017021 1.643289 0.281673
v 0.193507 -1.120191 -2.214934
v 1.359494 -0.907526 -0.754217
v 0.172912 -1.517191 1.360034
v -0.414076 -1.390658 -0.069976
v -1.577274 -0.595783 -1.634407
v -0.567321 -0.347256 -2.557027
v -0.588944 -1.118981 -2.033015
v 0.358254 -0.171515 -2.675684
v -1.121626 0.605752 -2.344756
v -0.181459 0.908062 -2.730880
v 0.458889 0.944290 -2.468700
v -0.756750 1.733188 -2.254663
v -1.505469 0.854469 -1.718396
v -1.697966 1.571192 -0.241251
v -1.699954 -0.088498 1.534821
v -1.920629 0.030575 0.476153
v -0.030682 -0.879064 2.134537
v 1.405608 0.165151 1.451561
v 0.449956 0.240237 1.988264
v -0.714183 1.560012 1.389688
v 1.555723 -0.922903 0.421713
v 1.425584 -0.669846 -1.525116
v 1.396557 0.613297 0.736114
vt 0.312500 0.743270
vt 0.216102 0.745927
vt 0.273260 0.627637
vt 0.360370 0.668967
vt 0.378930 0.715494
vt 0.720741 0.724952
vt 0.639077 0.743184
vt 0.637904 0.634303
vt 0.857203 0.744899
vt 0.765392 0.750000
vt 0.762384 0.542657
vt 0.627189 0.496843
vt 0.843407 0.620755
vt 0.137276 0.671313
vt 0.262282 0.500000
vt 0.357974 0.494397
vt 0.251833 0.534799
vt 0.514270 0.914868
vt 0.596864 0.950146
vt 0.529756 0.981601
vt 0.417499 0.753704
vt 0.394308 0.824231
vt 0.371852 0.744082
vt 0.389434 0.893727
vt 0.452202 0.897696
vt 0.386837 0.986579
vt 0.514692 0.794300
vt 0.452694 0.831574
vt 0.516315 0.863235
vt 0.580840 0.821000
vt 0.596391 0.882510
vt 0.626159 0.758844
vt 0.543756 0.739705
vt 0.625000 0.843750
vt 0.464988 0.518620
vt 0.496561 0.597248
vt 0.596869 0.499471
vt 0.419429 0.396099
vt 0.394573 0.479297
vt 0.375000 0.387282
vt 0.550859 0.438255
vt 0.491377 0.254010
vt 0.511182 0.346925
vt 0.382097 0.256280
vt 0.378319 0.200477
vt 0.434662 0.027567
vt 0.375000 0.078286
vt 0.378977 0.005728
vt 0.613971 0.399336
vt 0.875000 0.628646
vt 0.742719 0.500000
vt 0.822761 0.503935
vt 0.133238 0.743809
vt 0.130950 0.549710
vt 0.131254 0.500000
vt 0.482062 1.000000
vt 0.407403 0.171106
vt 0.613970 0.300215
vt 0.536926 0.173293
vt 0.609674 0.107898
vt 0.552966 0.000000
vt 0.617955 0.005906
vn -0.0836 -0.9881 -0.1293
vn -0.3738 -0.8888 -0.2651
vn -0.4184 0.9083 -0.0065
vn 0.0748 0.9942 0.0770
vn -0.4295 0.8720 0.2348
vn 0.2321 0.9718 0.0425
vn 0.2433 -0.9685 -0.0532
vn -0.3988 -0.8866 0.2343
vn -0.4601 -0.8809 0.1109
vn 0.7223 0.3860 -0.5738
vn -0.5538 -0.6808 -0.4795
vn 0.4236 -0.4542 -0.7837
vn -0.6331 -0.2018 -0.7473
vn -0.1070 -0.1040 -0.9888
vn -0.4282 0.2088 -0.8792
vn 0.3250 0.4129 -0.8508
vn -0.7831 0.3562 -0.5098
vn -0.3850 0.8723 -0.3013
vn -0.8779 -0.4605 0.1312
vn -0.8795 -0.4584 0.1279
vn -0.9783 -0.0649 0.1966
vn -0.1591 -0.5709 0.8054
vn -0.4935 0.0732 0.8667
vn 0.4820 -0.0931 0.8712
vn -0.1434 0.1029 0.9843
vn 0.9886 -0.0324 0.1469
vn 0.9401 -0.3399 -0.0242
vn -0.4095 0.5960 0.6907
vn 0.5700 0.8203 0.0472
vn 0.0773 0.9803 0.1817
vn -0.3232 0.9415 0.0959
vn -0.4085 0.8402 0.3567
vn -0.0374 0.7418 0.6696
vn 0.3323 0.9102 0.2474
vn 0.6049 0.6934 0.3916
vn 0.1043 -0.9927 0.0613
vn 0.3379 -0.8520 0.3999
vn 0.7531 0.0720 -0.6540
vn 0.1578 -0.9518 -0.2631
vn 0.1013 -0.9865 -0.1289
vn -0.2719 -0.9445 0.1841
vn -0.1031 -0.4857 -0.8680
vn 0.7581 0.0838 -0.6467
vn -0.5318 -0.4655 -0.7075
vn -0.9838 0.0229 -0.1775
vn -0.8505 0.0117 -0.5258
vn -0.3764 -0.0126 -0.9264
vn 0.3687 0.1373 -0.9194
vn -0.7594 0.2922 -0.5814
vn -0.0509 0.4724 -0.8799
vn 0.6062 0.4678 -0.6431
vn -0.4201 0.8611 -0.2864
vn -0.9984 0.0478 -0.0287
vn -0.7757 -0.5938 0.2138
vn -0.9903 0.0965 -0.1001
vn 0.8609 -0.4861 -0.1500
vn -0.9135 0.3064 -0.2677
vn -0.6281 0.1960 0.7531
vn 0.4360 -0.4312 0.7899
vn 0.5126 -0.1524 0.8450
vn -0.0609 0.1550 0.9860
vn 0.4773 0.3670 0.7984
vn 0.0332 0.3854 0.9221
vn -0.0426 0.5026 0.8635
vn 0.9760 -0.0626 0.2084
vn 0.7493 0.5654 0.3447
vn 0.9968 0.0532 -0.0597
vn 0.9886 0.0758 0.1300
vn 0.9945 0.0936 0.0461
vn 0.9630 0.1729 -0.2066
vn 0.8789 0.4031 -0.2551
vn 0.7351 0.4053 0.5434
g Cube_Cube.001_Material.001
usemtl Material.001
s off
f 25/1/1 19/2/1 22/3/1 5/4/1
f 5/4/2 12/5/2 25/1/2
f 16/6/3 6/7/3 32/8/3
f 16/6/4 13/9/4 7/10/4
f 17/11/5 32/8/5 1/12/5
f 17/11/6 18/13/6 16/6/6
f 22/3/7 19/2/7 20/14/7
f 4/15/8 15/16/8 21/17/8
f 15/16/9 22/3/9 21/17/9
f 29/18/10 13/19/10 14/20/10
f 23/21/11 25/22/11 12/23/11
f 19/24/12 26/25/12 10/26/12
f 27/27/13 24/28/13 23/21/13
f 28/29/14 26/25/14 24/28/14
f 30/30/15 28/29/15 27/27/15
f 7/31/16 29/18/16 28/29/16
f 6/32/17 30/30/17 31/33/17
f 16/34/18 7/31/18 30/30/18
f 33/35/19 34/36/19 5/4/19
f 5/4/20 34/36/20 12/5/20
f 1/37/21 34/36/21 33/35/21
f 35/38/22 15/39/22 4/40/22
f 9/41/23 33/35/23 15/39/23
f 36/42/24 37/43/24 35/38/24
f 9/41/25 15/39/25 35/38/25
f 36/42/26 11/44/26 8/45/26
f 40/46/27 20/47/27 10/48/27
f 38/49/28 1/37/28 9/41/28
f 18/13/29 2/50/29 13/9/29
f 16/6/30 18/13/30 13/9/30
f 17/11/31 16/6/31 32/8/31
f 1/12/32 38/51/32 17/11/32
f 38/51/33 3/52/33 17/11/33
f 3/52/34 18/13/34 17/11/34
f 3/52/35 2/50/35 18/13/35
f 20/14/36 19/2/36 10/53/36
f 21/17/37 8/54/37 11/55/37 4/15/37
f 14/20/38 10/26/38 26/25/38 29/18/38
f 8/54/39 22/3/39 20/14/39
f 8/54/40 21/17/40 22/3/40
f 15/16/41 5/4/41 22/3/41
f 19/24/42 25/22/42 24/28/42 26/25/42
f 10/26/43 14/20/43 40/56/43
f 23/21/44 24/28/44 25/22/44
f 31/33/45 12/5/45 34/36/45 32/8/45
f 31/33/46 27/27/46 23/21/46
f 27/27/47 28/29/47 24/28/47
f 28/29/48 29/18/48 26/25/48
f 31/33/49 30/30/49 27/27/49
f 30/30/50 7/31/50 28/29/50
f 29/18/51 7/31/51 13/19/51
f 30/30/52 6/32/52 16/34/52
f 12/5/53 31/33/53 23/21/53
f 15/16/54 33/35/54 5/4/54
f 1/37/55 32/8/55 34/36/55
f 39/57/56 8/45/56 20/47/56 40/46/56
f 32/8/57 6/32/57 31/33/57
f 9/41/58 1/37/58 33/35/58
f 4/40/59 11/44/59 35/38/59
f 11/44/60 36/42/60 35/38/60
f 37/43/61 9/41/61 35/38/61
f 36/42/62 3/58/62 37/43/62
f 3/58/63 9/41/63 37/43/63
f 3/58/64 38/49/64 9/41/64
f 39/57/65 36/42/65 8/45/65
f 41/59/66 3/58/66 36/42/66
f 40/46/67 2/60/67 39/57/67
f 2/60/68 41/59/68 39/57/68
f 41/59/69 36/42/69 39/57/69
f 40/46/70 14/61/70 2/60/70
f 14/61/71 13/62/71 2/60/71
f 2/60/72 3/58/72 41/59/72
