# Blender v2.90.1 OBJ File: 'Cactus02.blend'
# www.blender.org
mtllib Cactus03_new.mtl
o Cylinder
v -0.082358 0.024760 0.199714
v -0.065856 0.610158 0.199343
v -0.156741 0.616349 0.131592
v -0.205619 0.024760 0.015438
v -0.187947 0.394614 0.038196
v -0.168808 0.024760 -0.121663
v -0.064926 0.024760 -0.209781
v -0.062795 0.616373 -0.219277
v 0.091431 0.024760 -0.198106
v 0.052390 0.610779 -0.223822
v 0.150509 0.615366 -0.151415
v 0.205621 0.024760 0.015406
v 0.202746 0.440783 -0.066703
v 0.156524 0.024760 0.137819
v 0.053819 0.024760 0.213018
v 0.141167 0.622640 0.141818
v -0.034610 1.024453 0.230688
v -0.152584 0.827839 0.172122
v -0.195348 1.024504 0.085856
v -0.183079 1.029759 -0.087275
v -0.093728 1.014447 -0.176175
v -0.018395 0.955622 -0.199037
v 0.079441 0.855634 -0.179517
v 0.179961 1.024470 -0.083705
v 0.204473 1.030818 0.040270
v 0.150002 1.022924 0.156816
v 0.081029 1.023198 0.215345
v -0.151787 1.398568 0.149208
v -0.224430 1.404011 -0.041539
v -0.062686 1.402446 -0.232816
v 0.035531 1.402051 -0.225951
v 0.104568 1.397557 -0.186464
v -0.045012 1.832700 0.175779
v -0.047753 1.782394 0.214904
v -0.145919 1.834429 0.090110
v -0.147016 1.775382 0.167727
v -0.164913 1.833495 -0.035537
v -0.208218 1.781148 0.068583
v -0.102589 1.834050 -0.144070
v -0.201724 1.781246 -0.082961
v 0.021066 1.832619 -0.181301
v -0.102963 1.781612 -0.199289
v 0.000792 1.782145 -0.216176
v 0.132849 1.833352 -0.113847
v 0.075280 1.785618 -0.191724
v 0.168029 1.834499 0.017554
v 0.169591 1.782687 -0.103805
v 0.188917 1.782500 0.022858
v 0.097695 1.834324 0.150851
v 0.144512 1.783743 0.141851
v 0.047095 1.781956 0.207139
v -0.068625 1.876951 0.086594
v -0.100972 1.880878 -0.033167
v -0.010494 1.876441 -0.114617
v 0.068625 1.876951 -0.086935
v 0.100972 1.880878 0.032825
v 0.010494 1.876441 0.114276
v -0.057029 1.892562 -0.018742
v 0.017428 1.892656 -0.061856
v 0.057029 1.892562 0.018400
v -0.017428 1.892656 0.061514
v -0.193314 0.725582 -0.105775
v 0.139700 0.821888 -0.129780
v 0.044452 0.612174 0.201139
v -0.216335 0.817271 -0.028004
v 0.178585 0.773732 0.064126
v -0.144700 0.625729 -0.170152
v 0.184746 0.822070 -0.030364
v -0.057948 0.830091 0.224298
v -0.209399 0.823004 0.073441
v -0.041148 0.320400 0.223350
v -0.158034 0.025070 0.131156
v -0.170466 0.327544 -0.092411
v -0.062980 0.315387 -0.192983
v 0.077679 0.320494 -0.199421
v 0.177899 0.024904 -0.107674
v 0.213662 0.320440 0.035241
v 0.170991 0.320449 0.150357
v 0.074673 0.320443 0.216584
v -0.087383 1.394768 0.188755
v -0.210342 1.579560 0.079146
v -0.232971 1.589427 -0.004272
v -0.206165 1.478971 -0.123777
v -0.158044 1.452805 -0.185590
v 0.145540 1.560807 -0.128842
v 0.164550 1.584736 -0.072684
v 0.171237 1.535191 0.000328
v 0.149204 1.487679 0.082757
v 0.101262 1.449088 0.147789
v 0.016116 1.422721 0.194326
vt 0.951832 1.000000
vt 0.860010 0.998471
vt 0.958257 0.750000
vt 0.616074 1.000000
vt 0.560112 0.750000
vt 0.672808 0.750000
vt 0.296525 0.852050
vt 0.277178 1.000000
vt 0.231525 0.750000
vt 0.202790 1.000000
vt 0.139662 0.750000
vt 0.797002 1.000000
vt 0.802040 1.000000
vt 0.725154 1.000000
vt 0.325577 1.000000
vt 0.231771 1.000000
vt 0.881817 1.000000
vt 0.171882 1.000000
vt 0.137880 1.000000
vt 0.108876 1.000000
vt 0.891734 1.000000
vt 0.800697 1.000000
vt 0.828326 1.000000
vt 0.353961 1.000000
vt 0.421481 1.000000
vt 0.328155 1.000000
vt 0.757448 1.000000
vt 0.688273 1.000000
vt 0.671462 1.000000
vt 0.974306 1.000000
vt 0.924538 1.000000
vt 0.861985 1.000000
vt 0.684807 1.000000
vt 0.658943 1.000000
vt 0.566457 1.000000
vt 0.559807 1.000000
vt 0.533943 1.000000
vt 0.434807 1.000000
vt 0.408943 1.000000
vt 0.309807 1.000000
vt 0.283943 1.000000
vt 0.233045 1.000000
vt 0.204106 1.000000
vt 0.080996 1.000000
vt 0.047382 1.000000
vt 0.327167 1.000000
vt 0.341057 1.000000
vt 0.315193 1.000000
vt 0.452067 1.000000
vt 0.466057 1.000000
vt 0.440193 1.000000
vt 0.184807 1.000000
vt 0.173126 1.000000
vt 0.158943 1.000000
vt 0.028557 1.000000
vt 0.015227 1.000000
vt 0.002693 1.000000
vt 0.829150 1.000000
vt 0.841057 1.000000
vt 0.815193 1.000000
vt 0.548172 1.000000
vt 0.953870 1.000000
vt 0.966057 1.000000
vt 0.940193 1.000000
vt 0.673126 1.000000
vt 0.067125 1.000000
vt 0.033359 1.000000
vt 0.140295 1.000000
vt 0.572908 1.000000
vt 0.531059 1.000000
vt 0.509719 1.000000
vt 0.972883 1.000000
vt 1.000000 1.000000
vt 0.953410 1.000000
vt 0.672975 1.000000
vt 0.609259 1.000000
vt 0.732941 1.000000
vt 0.425389 1.000000
vt 0.391341 1.000000
vt 0.359595 1.000000
vt 0.546733 1.000000
vt 0.455951 1.000000
vt 0.125982 1.000000
vt 0.000000 1.000000
vt 0.046751 1.000000
vt 0.000000 1.000000
vt 0.140333 0.500000
vt 0.041709 0.500000
vt 0.238749 0.500000
vt 0.331187 0.500155
vt 0.367619 0.998180
vt 0.427331 0.500000
vt 0.449210 0.750000
vt 0.550756 0.500000
vt 0.761275 0.500000
vt 0.655587 0.500000
vt 1.000000 0.500000
vt 0.933878 0.500000
vt 0.453254 1.000000
vt 0.486041 1.000000
vt 0.890522 1.000000
vt 0.774937 0.812607
vt 0.856826 0.500441
vt 0.670083 1.000000
vt 0.049500 0.750000
vt 0.000000 0.750000
vt 0.966626 1.000000
vt 0.565650 0.401862
vt 0.689340 0.476361
vt 0.845614 0.466652
vt 0.937021 0.398607
vt 0.983686 0.266538
vt 0.946436 0.117551
vt 0.823502 0.027501
vt 0.646732 0.039637
vt 0.541526 0.133354
vt 0.516311 0.266503
vt 0.000000 1.000000
vt 0.234775 1.000000
vt 0.305944 1.000000
vt 0.000000 1.000000
vt 0.877693 1.000000
vt 0.903557 1.000000
vt 0.890369 1.000000
vt 0.778557 1.000000
vt 0.752693 1.000000
vt 0.730917 1.000000
vt 0.638015 1.000000
vt 0.513616 1.000000
vt 0.389650 1.000000
vt 0.265635 1.000000
vt 0.422058 0.196338
vt 0.300045 0.420955
vt 0.077942 0.303663
vt 0.199955 0.079045
vt 0.575462 1.000000
vt 0.591057 1.000000
vt 0.565193 1.000000
vt 0.295594 1.000000
vt 0.420616 1.000000
vt 0.091057 1.000000
vt 0.065193 1.000000
vt 0.765988 1.000000
vt 0.841057 1.000000
vt 0.815193 1.000000
vt 0.341057 1.000000
vt 0.315193 1.000000
vt 0.565193 1.000000
vt 0.591057 1.000000
vt 0.065193 1.000000
vt 0.091057 1.000000
vt 0.953829 1.000000
vt 0.453829 1.000000
vn -0.5969 0.0156 0.8022
vn -0.6853 -0.1277 -0.7170
vn 0.9976 0.0515 -0.0460
vn 0.9365 0.0503 0.3471
vn -0.9958 0.0655 0.0644
vn 0.9809 -0.0276 -0.1925
vn -0.8669 0.0298 0.4976
vn 0.8278 -0.0972 0.5526
vn -0.8494 0.0365 0.5265
vn 0.6820 0.0086 -0.7313
vn -0.9641 0.0240 0.2644
vn -0.9638 0.0495 -0.2620
vn -0.3827 0.5801 0.7190
vn -0.6658 0.5983 0.4458
vn -0.5964 0.7277 -0.3388
vn -0.1949 0.7119 -0.6747
vn 0.4040 0.6160 -0.6762
vn 0.8098 0.5433 -0.2215
vn 0.8675 0.3811 0.3197
vn 0.5190 0.3409 0.7838
vn 0.5059 0.8468 -0.1644
vn 0.1646 0.8583 -0.4861
vn 0.5875 0.7471 0.3110
vn 0.1024 0.7646 0.6363
vn -0.4707 0.8685 0.1556
vn -0.1704 0.7845 -0.5962
vn -0.1597 0.8668 0.4724
vn -0.5573 0.7678 -0.3161
vn 0.4475 0.1193 0.8863
vn 0.6446 0.0898 0.7592
vn -0.3636 -0.1060 -0.9255
vn -0.0806 0.1008 0.9916
vn 0.9019 0.0695 0.4262
vn -0.8039 -0.0891 -0.5881
vn -0.9578 -0.0718 -0.2782
vn -0.9967 -0.0573 0.0568
vn -0.9655 -0.0229 0.2592
vn 0.6230 -0.0389 -0.7812
vn -0.0362 0.0642 -0.9973
vn 0.6463 -0.0428 0.7619
vn -0.0141 -0.1122 0.9936
vn -0.5091 0.0535 -0.8590
vn 0.9251 -0.0346 0.3783
vn -0.5979 -0.1395 0.7893
vn 0.5896 -0.0630 0.8052
vn 0.9264 -0.0611 0.3716
vn 0.9749 -0.0366 -0.2196
vn 0.7227 -0.0177 -0.6910
vn 0.0745 -0.0010 -0.9972
vn -0.9656 0.0198 -0.2593
vn -0.0970 -0.0659 0.9931
vn 0.7459 0.0473 -0.6644
vn 0.4976 0.0258 -0.8670
vn 0.0698 0.0320 -0.9970
vn -0.5245 -0.0352 0.8507
vn -0.4290 0.0343 -0.9027
vn -0.9498 0.0018 0.3130
vn -0.0429 -0.0872 -0.9953
vn -0.8430 -0.0663 -0.5338
vn -0.5192 -0.0741 -0.8515
vn 0.5397 0.0884 0.8372
vn 0.5942 -0.0158 -0.8042
vn 0.8518 0.0007 -0.5238
vn 0.9924 0.0704 0.1007
vn 0.8105 0.0963 0.5777
vn 0.0213 0.0697 0.9973
vn -0.4831 0.0292 0.8751
vn -0.7123 0.0755 -0.6978
vn -0.0001 -1.0000 0.0001
vn 0.1283 -0.0464 0.9907
vn 0.9075 -0.0869 -0.4110
vn -0.9885 0.1363 -0.0659
vn 0.9061 -0.0523 0.4199
vn 0.9884 -0.0532 -0.1420
vn -0.9391 0.0523 -0.3396
vn 0.9950 -0.0989 0.0143
vn -0.7606 0.0993 -0.6415
vn 0.0813 -0.0425 0.9958
vn 0.9520 -0.0676 0.2985
vn 0.5285 -0.0649 0.8465
vn -0.4029 0.7729 0.4902
vn -0.4282 -0.0172 0.9035
vn 0.1006 0.6487 0.7543
vn 0.9536 -0.0703 -0.2928
vn -0.9887 0.1437 -0.0423
vn -0.4447 0.7158 0.5383
vn -0.6658 0.7400 0.0951
vn -0.8022 0.5960 -0.0340
vn -0.6296 0.5655 -0.5327
vn -0.9880 -0.0748 -0.1351
vn -0.1317 0.5988 -0.7900
vn 0.2536 0.4789 -0.8405
vn 0.6482 0.3344 -0.6841
vn 0.9236 0.3567 -0.1404
vn 0.7123 0.5923 0.3766
vn 0.0000 1.0000 0.0000
vn -0.2887 0.8835 -0.3688
vn 0.5387 0.8288 -0.1515
vn 0.3139 0.7887 -0.5287
vn 0.2795 0.8905 0.3590
vn -0.5953 0.7991 0.0840
vn -0.2632 0.9581 0.1130
vn 0.2632 0.9581 -0.1130
vn -0.1525 0.9598 -0.2354
vn 0.1525 0.9598 0.2354
vn -0.1154 0.9307 0.3471
vn -0.8348 0.0040 0.5506
vn 0.1154 0.9307 -0.3471
vn 0.4945 -0.0341 -0.8685
vn 0.1320 0.0734 0.9885
vn 0.0970 -0.0716 -0.9927
vn -0.4996 0.0321 0.8657
vn 0.9703 0.0314 -0.2397
vn 0.7710 0.1015 0.6287
vn -0.4794 -0.0891 -0.8730
vn -0.7105 -0.1191 -0.6936
vn 0.9489 0.0866 0.3035
vn 0.9969 0.0618 -0.0494
vn 0.7966 -0.0055 -0.6045
vn -0.9922 -0.1007 -0.0734
vn 0.6187 0.0917 -0.7803
vn -0.8660 -0.0818 0.4934
vn -0.2261 0.0875 -0.9702
vn 0.9118 0.0843 -0.4019
vn 0.3236 0.1337 -0.9367
vn -0.6630 0.0582 -0.7464
vn -0.9959 -0.0557 0.0712
vn 0.5273 -0.0762 0.8463
vn -0.4797 -0.0819 0.8736
vn 0.0583 -0.0162 0.9982
vn 0.5659 -0.0498 0.8230
vn 0.9365 -0.0488 0.3472
vn 0.9916 -0.0184 -0.1279
vn 0.4950 0.0192 -0.8687
vn -0.0477 0.0580 -0.9972
vn -0.6338 0.0094 0.7735
vn -0.9853 0.0570 -0.1611
vn -0.9247 0.0208 0.3802
vn -0.0365 -0.0635 0.9973
vn -0.9760 -0.0012 -0.2178
vn -0.7919 -0.0200 0.6103
vn 0.3092 0.0527 -0.9495
vn -0.1606 0.0700 -0.9845
usemtl None
s off
f 2/1/1 3/2/1 71/3/1
f 67/4/2 74/5/2 73/6/2
f 13/7/3 68/8/3 77/9/3
f 77/9/4 66/10/4 78/11/4
f 70/12/5 19/13/5 65/14/5
f 68/8/6 24/15/6 25/16/6
f 18/17/7 19/13/7 70/12/7
f 88/18/8 50/19/8 89/20/8
f 36/21/9 38/22/9 81/23/9
f 85/24/10 45/25/10 47/26/10
f 81/23/11 38/22/11 82/27/11
f 82/27/12 40/28/12 83/29/12
f 34/30/13 33/31/13 36/21/13
f 36/21/14 35/32/14 38/22/14
f 40/28/15 37/33/15 39/34/15
f 42/35/16 39/36/16 41/37/16
f 45/25/17 41/38/17 44/39/17
f 47/26/18 44/40/18 46/41/18
f 48/42/19 46/43/19 50/19/19
f 50/19/20 49/44/20 51/45/20
f 44/46/21 55/47/21 56/48/21
f 41/49/22 54/50/22 55/51/22
f 46/52/23 56/53/23 49/54/23
f 49/55/24 57/56/24 33/57/24
f 35/58/25 52/59/25 53/60/25
f 39/36/26 54/61/26 41/37/26
f 33/62/27 57/63/27 52/64/27
f 37/33/28 53/65/28 39/34/28
f 27/66/29 89/20/29 90/67/29
f 26/68/30 89/20/30 27/66/30
f 21/69/31 30/70/31 22/71/31
f 17/72/32 90/73/32 80/74/32
f 25/16/33 88/18/33 26/68/33
f 20/75/34 83/29/34 84/76/34
f 20/75/35 29/77/35 83/29/35
f 19/13/36 82/27/36 29/77/36
f 19/13/37 81/23/37 82/27/37
f 23/78/38 32/79/38 63/80/38
f 8/81/39 22/71/39 10/82/39
f 16/83/40 26/68/40 27/66/40
f 2/84/41 64/85/41 69/86/41
f 67/4/42 21/69/42 8/81/42
f 16/83/43 66/10/43 26/68/43
f 2/1/44 18/17/44 3/2/44
f 14/87/45 78/11/45 15/88/45
f 78/11/46 14/87/46 12/89/46
f 13/7/47 12/89/47 76/90/47
f 11/91/48 76/90/48 9/92/48
f 75/93/49 9/92/49 7/94/49
f 4/95/50 73/6/50 6/96/50
f 15/97/51 71/3/51 1/98/51
f 32/79/52 45/25/52 85/24/52
f 31/99/53 45/25/53 32/79/53
f 30/70/54 43/100/54 31/99/54
f 28/101/55 80/74/55 36/21/55
f 84/76/56 42/35/56 30/70/56
f 3/2/57 5/102/57 72/103/57
f 10/82/58 75/93/58 74/5/58 8/81/58
f 62/104/59 67/4/59 73/6/59
f 74/5/60 67/4/60 8/81/60
f 79/105/61 78/11/61 16/83/61 64/85/61
f 75/93/62 10/82/62 11/91/62
f 76/90/63 11/91/63 13/7/63
f 77/9/64 68/8/64 66/10/64
f 78/11/65 66/10/65 16/83/65
f 71/106/66 79/105/66 64/85/66 2/84/66
f 69/107/67 17/72/67 18/17/67
f 20/75/68 21/69/68 67/4/68 62/104/68
f 14/108/69 15/109/69 1/110/69 72/111/69 4/112/69 6/113/69 7/114/69 9/115/69 76/116/69 12/117/69
f 17/118/70 69/86/70 64/85/70 27/66/70
f 68/8/71 63/80/71 24/15/71
f 65/14/72 19/13/72 20/75/72
f 66/10/73 25/16/73 26/68/73
f 47/26/74 48/42/74 87/119/74 86/120/74
f 62/104/75 65/14/75 20/75/75
f 66/10/76 68/8/76 25/16/76
f 40/28/77 42/35/77 84/76/77 83/29/77
f 90/67/78 51/45/78 34/121/78
f 48/42/79 50/19/79 88/18/79 87/119/79
f 51/45/80 90/67/80 89/20/80 50/19/80
f 35/122/81 33/123/81 52/124/81
f 80/74/82 34/30/82 36/21/82
f 33/57/83 34/121/83 51/45/83 49/55/83
f 86/120/84 85/24/84 47/26/84
f 82/27/85 38/22/85 40/28/85
f 36/21/86 33/123/86 35/122/86
f 38/22/87 35/125/87 37/126/87
f 40/28/88 38/22/88 37/127/88
f 42/35/89 40/28/89 39/128/89
f 73/6/90 5/102/90 65/14/90 62/104/90
f 43/100/91 42/35/91 41/129/91
f 45/25/92 43/100/92 41/49/92
f 47/26/93 45/25/93 44/130/93
f 48/42/94 47/26/94 46/131/94
f 50/19/95 46/52/95 49/54/95
f 58/132/96 61/133/96 60/134/96 59/135/96
f 39/136/97 53/137/97 54/138/97
f 46/41/98 44/40/98 56/139/98
f 44/39/99 41/38/99 55/140/99
f 49/44/100 56/141/100 57/142/100
f 37/126/101 35/125/101 53/143/101
f 61/144/102 58/145/102 53/60/102 52/59/102
f 59/146/103 60/147/103 56/48/103 55/47/103
f 59/148/104 54/138/104 53/137/104 58/149/104
f 61/150/105 57/142/105 56/141/105 60/151/105
f 52/64/106 57/63/106 61/152/106
f 28/101/107 81/23/107 19/13/107 18/17/107
f 55/51/108 54/50/108 59/153/108
f 23/78/109 31/99/109 32/79/109
f 17/118/110 27/66/110 90/67/110
f 31/99/111 23/78/111 22/71/111 30/70/111
f 80/74/112 28/101/112 18/17/112 17/72/112
f 86/120/113 25/16/113 24/15/113 85/24/113
f 26/68/114 88/18/114 89/20/114
f 21/69/115 84/76/115 30/70/115
f 21/69/116 20/75/116 84/76/116
f 25/16/117 87/119/117 88/18/117
f 25/16/118 86/120/118 87/119/118
f 85/24/119 24/15/119 63/80/119 32/79/119
f 20/75/120 19/13/120 29/77/120
f 23/78/121 63/80/121 11/91/121 10/82/121
f 70/12/122 5/102/122 3/2/122 18/17/122
f 8/81/123 21/69/123 22/71/123
f 63/80/124 68/8/124 13/7/124 11/91/124
f 10/82/125 22/71/125 23/78/125
f 7/94/126 6/96/126 73/6/126 74/5/126
f 5/102/127 70/12/127 65/14/127
f 64/85/128 16/83/128 27/66/128
f 2/1/129 69/107/129 18/17/129
f 15/88/130 79/105/130 71/106/130
f 15/88/131 78/11/131 79/105/131
f 77/9/132 78/11/132 12/89/132
f 13/7/133 77/9/133 12/89/133
f 75/93/134 11/91/134 9/92/134
f 74/5/135 75/93/135 7/94/135
f 3/2/136 72/103/136 1/98/136 71/3/136
f 4/95/137 5/102/137 73/6/137
f 4/95/138 72/103/138 5/102/138
f 80/74/139 90/73/139 34/30/139
f 29/77/140 82/27/140 83/29/140
f 28/101/141 36/21/141 81/23/141
f 31/99/142 43/100/142 45/25/142
f 30/70/143 42/35/143 43/100/143
