# Blender v2.90.1 OBJ File: 'Cactus02.blend'
# www.blender.org
o Cylinder
v -0.150582 0.041183 0.243662
v -0.267265 0.041240 0.019908
v -0.201570 0.041239 -0.189398
v 0.008101 0.041186 -0.291088
v 0.260569 1.030272 -0.228305
v 0.267264 0.041240 0.019916
v 0.338658 1.012849 0.040048
v 0.136344 0.041131 0.256810
v 0.219809 1.025563 0.290621
v -0.274104 1.530171 0.256511
v -0.356916 1.695941 0.109469
v -0.205703 1.344438 -0.302519
v 0.208759 1.652035 -0.245637
v 0.305259 1.381711 0.077675
v 0.228628 1.399792 0.239952
v 0.099048 1.477181 0.342529
v -0.094097 1.563966 0.363240
v -0.211364 1.730298 0.319004
v 0.008930 1.713818 -0.355822
v 0.221452 2.320688 0.218774
v 0.119281 2.300246 0.308499
v -0.007844 2.538991 0.342460
v -0.193188 3.066228 0.202882
v -0.093569 2.976777 0.347105
v -0.232634 2.969881 0.280742
v -0.278461 3.057379 -0.047248
v -0.347037 2.968661 0.114067
v -0.171503 3.055826 -0.249524
v -0.325668 2.972299 -0.164491
v 0.064112 3.055197 -0.308491
v -0.162602 2.968883 -0.331822
v 0.066498 2.958954 -0.360435
v 0.217107 3.054459 -0.196468
v 0.197701 2.972221 -0.283888
v 0.284513 3.057792 -0.011836
v 0.313336 2.972722 -0.067405
v 0.201452 3.055854 0.199990
v 0.288366 2.968911 0.152523
v 0.197822 2.971129 0.274376
v 0.034910 3.054802 0.292713
v 0.078940 2.974046 0.341060
v -0.172779 3.129595 0.037366
v 0.146227 3.129052 0.106946
v -0.035071 3.130526 0.191441
v -0.110432 3.150815 -0.071957
v 0.029180 3.148708 -0.147230
v 0.129768 3.151203 -0.012992
v -0.029047 3.154426 0.102523
v 0.291673 1.489745 -0.094417
v -0.363927 1.484542 -0.031848
v -0.316906 1.428060 -0.181060
v 0.091480 0.897281 -0.341837
v 0.014657 1.216498 0.366467
v -0.040144 0.890735 -0.355307
v -0.156355 0.539530 0.332489
v -0.289420 0.533505 0.186552
v -0.335270 0.525826 -0.008115
v -0.220910 0.514113 -0.250235
v 0.203446 0.041915 -0.197112
v 0.322748 0.520827 -0.008122
v 0.242384 0.527947 0.249873
v 0.052793 0.525565 0.360487
v -0.245287 2.631572 0.261048
v -0.329906 2.526617 0.154163
v -0.371713 2.445365 0.002321
v -0.348867 2.303626 -0.157044
v -0.212232 2.428327 -0.326164
v -0.066254 2.517572 -0.376329
v 0.182938 2.629984 -0.298817
v 0.269135 2.582243 -0.188167
v 0.305496 2.494649 -0.054526
v 0.288313 2.333869 0.086449
vt 0.866439 1.000000
vt 0.831166 0.750000
vt 0.925417 0.750000
vt 0.798258 1.000000
vt 0.738676 0.750000
vt 0.660421 1.000000
vt 0.612695 0.750000
vt 0.595517 1.000000
vt 0.517617 0.894942
vt 0.453312 0.928369
vt 0.360560 1.000000
vt 0.360413 0.501064
vt 0.261356 0.750000
vt 0.236429 1.000000
vt 0.135103 0.750000
vt 0.112834 1.000000
vt 0.029050 0.750000
vt 0.478328 1.000000
vt 0.016090 1.000000
vt 0.071425 1.000000
vt 0.000000 1.000000
vt 0.377651 1.000000
vt 0.328991 1.000000
vt 0.297162 1.000000
vt 0.730873 1.000000
vt 0.759223 1.000000
vt 0.680757 1.000000
vt 0.266994 1.000000
vt 0.220349 1.000000
vt 0.574999 1.000000
vt 0.003156 1.000000
vt 0.043998 1.000000
vt 0.000000 1.000000
vt 0.570611 1.000000
vt 0.517438 1.000000
vt 0.967931 1.000000
vt 0.891861 1.000000
vt 0.890814 1.000000
vt 0.827705 1.000000
vt 0.800585 1.000000
vt 0.390722 1.000000
vt 0.279507 1.000000
vt 0.676192 1.000000
vt 0.919122 1.000000
vt 0.861702 1.000000
vt 0.809807 1.000000
vt 0.783943 1.000000
vt 0.684807 1.000000
vt 0.658943 1.000000
vt 0.559807 1.000000
vt 0.533943 1.000000
vt 0.403557 1.000000
vt 0.377693 1.000000
vt 0.236911 1.000000
vt 0.178878 1.000000
vt 0.137299 1.000000
vt 0.109786 1.000000
vt 0.016597 1.000000
vt 0.872307 1.000000
vt 0.846443 1.000000
vt 0.548129 1.000000
vt 0.673184 1.000000
vt 0.801654 1.000000
vt 0.240612 1.000000
vt 0.221443 1.000000
vt 0.358353 1.000000
vt 0.364493 1.000000
vt 0.346443 1.000000
vt 0.828938 1.000000
vt 0.841057 1.000000
vt 0.815193 1.000000
vt 0.391466 1.000000
vt 0.140099 1.000000
vt 0.082136 0.500000
vt 0.238775 0.500000
vt 1.000000 0.750000
vt 1.000000 1.000000
vt 0.972289 1.000000
vt 0.634994 0.500000
vt 0.495599 0.500000
vt 0.761221 0.500000
vt 0.908153 0.500000
vt 1.000000 1.000000
vt 0.913734 1.000000
vt 0.078675 1.000000
vt 0.483213 1.000000
vt 0.140627 1.000000
vt 0.203120 1.000000
vt 0.516307 0.266465
vt 0.638081 0.447136
vt 0.875610 0.443042
vt 0.983693 0.266458
vt 0.925720 0.094987
vt 0.743574 0.018859
vt 0.569513 0.100017
vt 0.341057 1.000000
vt 0.315193 1.000000
vt 0.966057 1.000000
vt 0.940193 1.000000
vt 0.733535 1.000000
vt 0.608180 1.000000
vt 0.513530 1.000000
vt 0.451922 1.000000
vt 0.065193 1.000000
vt 0.091057 1.000000
vt 0.184807 1.000000
vt 0.158943 1.000000
vt 0.065193 1.000000
vt 0.091057 1.000000
vt 0.857146 1.000000
vt 0.320806 1.000000
vt 0.171062 1.000000
vt 0.575430 1.000000
vt 0.591057 1.000000
vt 0.565193 1.000000
vt 0.700631 1.000000
vt 0.716057 1.000000
vt 0.697233 1.000000
vt 0.951791 1.000000
vt 0.389376 1.000000
vt 0.422058 0.196338
vt 0.300045 0.420955
vt 0.077942 0.303663
vt 0.199955 0.079045
vt 0.065193 1.000000
vt 0.091057 1.000000
vt 1.000000 0.500000
vn -0.7377 -0.0360 0.6741
vn -0.9722 -0.0412 0.2306
vn -0.9036 -0.0628 -0.4238
vn -0.4233 -0.0492 -0.9047
vn 0.5883 -0.0595 -0.8065
vn 0.9103 -0.0655 -0.4087
vn 0.9526 -0.0600 0.2984
vn 0.5038 -0.0478 0.8625
vn 0.1021 -0.0067 -0.9947
vn 0.1284 0.0494 0.9905
vn -0.2656 0.0152 -0.9640
vn 0.8649 -0.0252 -0.5013
vn -0.9903 -0.0031 -0.1392
vn 0.9963 -0.0103 -0.0851
vn -0.7739 -0.0109 -0.6333
vn 0.0350 -0.0038 0.9994
vn -0.3364 0.0210 -0.9415
vn -0.4289 -0.0365 0.9026
vn -0.9623 -0.0126 0.2717
vn 0.8811 0.0458 -0.4707
vn -0.9849 0.0323 -0.1699
vn -0.3461 0.6713 0.6554
vn -0.6482 0.6212 0.4404
vn -0.5977 0.7822 0.1761
vn -0.5800 0.7523 -0.3124
vn -0.1793 0.6666 -0.7236
vn 0.4822 0.5822 -0.6547
vn 0.9612 0.2515 0.1135
vn 0.7262 0.4357 0.5317
vn 0.0381 0.5285 0.8481
vn -0.3408 0.8913 0.2992
vn -0.1274 0.8458 -0.5181
vn -0.4980 0.8242 -0.2696
vn -0.6561 0.7283 0.1979
vn 0.5144 0.8532 0.0870
vn 0.3668 0.8835 -0.2913
vn -0.2023 0.9765 0.0742
vn 0.4742 -0.0353 -0.8797
vn -0.7439 -0.0191 -0.6680
vn -0.9663 0.0176 0.2566
vn 0.6497 0.0869 0.7552
vn 0.5453 0.0221 -0.8380
vn 0.9603 0.0161 -0.2784
vn 0.8609 -0.1807 0.4757
vn 0.9516 -0.1265 -0.2802
vn -0.1197 -0.0196 0.9926
vn -0.4326 -0.1324 -0.8918
vn -0.9434 -0.1495 -0.2961
vn -0.8701 -0.1927 0.4537
vn 0.1116 0.0113 0.9937
vn -0.3394 0.0109 0.9406
vn 0.1948 -0.0357 0.9802
vn 0.1542 -0.0108 -0.9880
vn 0.6638 -0.0397 0.7468
vn 0.8934 -0.0466 0.4468
vn -0.5107 0.0052 0.8597
vn -0.8805 -0.0197 0.4737
vn -0.9955 -0.0275 0.0905
vn -0.9570 -0.0357 -0.2880
vn -0.7468 -0.0282 -0.6644
vn 0.9601 -0.0037 -0.2796
vn 0.9036 0.0059 0.4283
vn -0.4904 -0.1160 0.8638
vn 0.3562 0.0116 0.9343
vn 0.0005 -1.0000 -0.0005
vn 0.9938 -0.0123 0.1105
vn 0.4908 0.0347 -0.8706
vn 0.7861 -0.0128 -0.6179
vn 0.9645 -0.0028 -0.2642
vn -0.9563 -0.0269 -0.2912
vn 0.9901 0.0163 0.1393
vn -0.8106 0.0107 0.5856
vn -0.7144 0.0583 -0.6973
vn -0.1205 0.0719 -0.9901
vn 0.8408 0.3783 -0.3873
vn 0.5027 0.0160 -0.8643
vn 0.7874 -0.0071 -0.6164
vn -0.9951 0.0631 -0.0755
vn 0.9607 -0.0232 -0.2766
vn -0.2035 0.7629 0.6137
vn -0.8375 0.5434 -0.0572
vn -0.6106 0.5106 -0.6054
vn -0.0892 0.4714 -0.8774
vn 0.4192 0.4392 -0.7946
vn 0.3901 0.6081 0.6914
vn 0.7515 0.5875 0.3001
vn 0.2475 0.8394 0.4838
vn -0.2672 0.9350 0.2332
vn 0.5074 0.8381 -0.2004
vn 0.6009 0.7617 0.2426
vn -0.2053 0.8906 -0.4058
vn -0.4957 0.8608 -0.1156
vn -0.2332 0.6946 0.6805
vn 0.3147 0.8491 -0.4242
vn 0.0038 0.9998 -0.0220
vn 0.1351 0.9690 0.2069
vn -0.7697 0.0175 0.6381
vn -0.8704 0.0018 0.4923
vn 0.6413 0.0195 0.7671
vn 0.3129 0.0316 0.9493
vn -0.2367 -0.0330 -0.9710
vn 0.8990 0.0145 0.4376
vn 0.9043 0.0374 0.4254
vn -0.9978 -0.0104 0.0651
vn 0.9955 0.0923 -0.0207
vn -0.0866 -0.1991 0.9762
vn 0.3301 -0.0202 0.9437
vn 0.9022 0.0633 -0.4267
vn 0.5025 -0.0972 0.8591
vn 0.9499 -0.0925 0.2984
vn 0.4318 -0.0952 -0.8969
vn 0.1050 -0.0690 -0.9921
vn -0.3529 -0.0904 -0.9313
vn -0.9021 -0.0912 -0.4217
vn -0.9650 -0.1220 0.2321
vn -0.7302 -0.1281 0.6711
vn 0.4169 -0.0226 -0.9087
vn 0.4889 -0.0129 0.8722
vn -0.5489 0.0330 0.8352
vn 0.8023 -0.0218 0.5965
vn -0.7850 0.0203 -0.6192
s off
f 10/1/1 56/2/1 55/3/1
f 11/4/2 57/5/2 56/2/2
f 51/6/3 58/7/3 57/5/3
f 12/8/4 54/9/4 58/7/4
f 52/10/5 5/11/5 59/12/5
f 59/12/6 5/11/6 60/13/6
f 60/13/7 7/14/7 61/15/7
f 61/15/8 9/16/8 62/17/8
f 54/9/9 19/18/9 52/10/9
f 53/19/10 16/20/10 17/21/10
f 12/8/11 19/18/11 54/9/11
f 13/22/12 70/23/12 49/24/12
f 50/25/13 65/26/13 66/27/13
f 49/24/14 71/28/14 14/29/14
f 51/6/15 66/27/15 67/30/15
f 22/31/16 41/32/16 24/33/16
f 67/30/17 31/34/17 68/35/17
f 24/36/18 25/37/18 63/38/18
f 64/39/19 27/40/19 65/26/19
f 70/23/20 34/41/20 36/42/20
f 65/26/21 29/43/21 66/27/21
f 24/36/22 23/44/22 25/37/22
f 25/37/23 23/45/23 27/40/23
f 27/40/24 23/46/24 26/47/24
f 29/43/25 26/48/25 28/49/25
f 31/34/26 28/50/26 30/51/26
f 34/41/27 30/52/27 33/53/27
f 36/42/28 35/54/28 38/55/28
f 38/55/29 37/56/29 39/57/29
f 41/32/30 40/58/30 24/33/30
f 23/45/31 44/59/31 42/60/31
f 28/50/32 46/61/32 30/51/32
f 26/48/33 45/62/33 28/49/33
f 23/46/34 42/63/34 26/47/34
f 35/54/35 47/64/35 43/65/35
f 33/66/36 46/67/36 47/68/36
f 42/69/37 48/70/37 45/71/37
f 19/18/38 69/72/38 13/22/38
f 12/8/39 51/6/39 67/30/39
f 11/4/40 64/39/40 65/26/40
f 9/16/41 15/73/41 16/20/41
f 52/10/42 13/22/42 5/11/42
f 5/11/43 49/24/43 7/14/43
f 61/15/44 8/74/44 6/75/44
f 60/13/45 6/75/45 59/12/45
f 55/3/46 62/76/46 53/77/46 17/78/46
f 3/79/47 58/7/47 4/80/47
f 2/81/48 57/5/48 3/79/48
f 1/82/49 56/2/49 2/81/49
f 22/83/50 24/36/50 17/78/50
f 17/78/51 24/36/51 18/84/51
f 21/85/52 41/32/52 22/31/52
f 19/18/53 68/35/53 32/86/53
f 20/87/54 39/57/54 21/85/54
f 72/88/55 38/55/55 20/87/55
f 17/78/56 10/1/56 55/3/56
f 10/1/57 11/4/57 56/2/57
f 11/4/58 50/25/58 57/5/58
f 50/25/59 51/6/59 57/5/59
f 51/6/60 12/8/60 58/7/60
f 60/13/61 5/11/61 7/14/61
f 61/15/62 7/14/62 9/16/62
f 10/1/63 17/78/63 18/84/63
f 62/17/64 9/16/64 53/19/64
f 6/89/65 8/90/65 1/91/65 2/92/65 3/93/65 4/94/65 59/95/65
f 36/42/66 38/55/66 72/88/66 71/28/66
f 52/10/67 19/18/67 13/22/67
f 13/22/68 69/72/68 70/23/68
f 49/24/69 70/23/69 71/28/69
f 51/6/70 50/25/70 66/27/70
f 14/29/71 71/28/71 72/88/71
f 27/40/72 64/39/72 63/38/72 25/37/72
f 67/30/73 29/43/73 31/34/73
f 68/35/74 31/34/74 32/86/74
f 33/96/75 35/97/75 36/42/75 34/41/75
f 69/72/76 32/86/76 34/41/76
f 70/23/77 69/72/77 34/41/77
f 65/26/78 27/40/78 29/43/78
f 71/28/79 70/23/79 36/42/79
f 24/36/80 40/98/80 23/99/80
f 29/43/81 27/40/81 26/100/81
f 31/34/82 29/43/82 28/101/82
f 32/86/83 31/34/83 30/102/83
f 34/41/84 32/86/84 30/103/84
f 40/104/85 41/32/85 39/57/85 37/105/85
f 38/55/86 35/106/86 37/107/86
f 44/108/87 40/104/87 37/105/87 43/109/87
f 42/60/88 44/59/88 48/110/88
f 35/97/89 33/96/89 47/111/89
f 37/107/90 35/106/90 43/112/90
f 28/113/91 45/114/91 46/115/91
f 26/116/92 42/117/92 45/118/92
f 23/99/93 40/98/93 44/119/93
f 33/53/94 30/52/94 46/120/94
f 45/121/95 48/122/95 47/123/95 46/124/95
f 48/125/96 44/108/96 43/109/96 47/126/96
f 63/38/97 64/39/97 10/1/97 18/84/97
f 11/4/98 10/1/98 64/39/98
f 17/21/50 16/20/50 22/31/50
f 21/85/99 16/20/99 15/73/99 20/87/99
f 16/20/100 21/85/100 22/31/100
f 67/30/101 68/35/101 19/18/101 12/8/101
f 20/87/102 15/73/102 14/29/102 72/88/102
f 14/29/103 15/73/103 9/16/103 7/14/103
f 50/25/104 11/4/104 65/26/104
f 7/14/105 49/24/105 14/29/105
f 1/82/106 8/127/106 62/76/106 55/3/106
f 53/19/107 9/16/107 16/20/107
f 5/11/108 13/22/108 49/24/108
f 61/15/109 62/17/109 8/74/109
f 60/13/110 61/15/110 6/75/110
f 4/80/111 52/10/111 59/12/111
f 4/80/112 54/9/112 52/10/112
f 4/80/113 58/7/113 54/9/113
f 3/79/114 57/5/114 58/7/114
f 2/81/115 56/2/115 57/5/115
f 1/82/116 55/3/116 56/2/116
f 69/72/117 19/18/117 32/86/117
f 21/85/118 39/57/118 41/32/118
f 18/84/119 24/36/119 63/38/119
f 20/87/120 38/55/120 39/57/120
f 67/30/121 66/27/121 29/43/121
o Cylinder.001
v -0.088227 1.287217 0.159506
v -0.229130 1.363125 0.097672
v -0.246673 1.519378 -0.016532
v -0.112578 1.610047 -0.080236
v 0.022574 1.626042 -0.087079
v 0.116084 1.603478 -0.069696
v 0.188657 1.558586 -0.037428
v 0.244996 1.479112 0.020466
v 0.097905 1.294617 0.156644
v 0.004597 1.402965 0.549951
v -0.164978 1.417680 0.524347
v -0.278473 1.461979 0.333568
v -0.212756 1.632108 0.234273
v 0.017812 1.723773 0.280920
v 0.197062 1.569369 0.258115
v 0.163803 1.437331 0.463924
v -0.051673 1.745405 0.938409
v -0.241436 1.804969 0.870668
v -0.288276 1.803893 0.751692
v -0.160498 1.993538 0.611157
v -0.022499 2.011035 0.586310
v 0.115890 1.975196 0.636077
v 0.142098 1.799697 0.883368
v -0.085796 2.296613 1.057933
v -0.242924 2.315865 0.951767
v -0.229508 2.361181 0.753948
v -0.058429 2.414237 0.665836
v 0.147218 2.417552 0.756871
v 0.067573 2.378819 0.673098
v 0.184509 2.352965 0.769068
v 0.184377 2.351338 0.930057
v 0.206334 2.324601 0.872068
v 0.080158 2.285794 1.045439
v -0.162646 2.421648 0.886191
v -0.127887 2.448320 0.767966
v 0.038873 2.464481 0.773289
v 0.075674 2.383425 0.989152
v -0.036561 2.471526 0.815103
v 0.080312 2.447466 0.884006
v -0.045737 2.437753 0.939611
v 0.160896 1.779037 0.525793
v -0.277167 1.657332 0.473835
v 0.204628 1.659616 0.629542
v -0.199722 1.803830 0.483027
v 0.108448 1.565830 0.725861
v -0.010956 1.843337 0.446469
v -0.238999 1.593487 0.693696
v -0.073257 1.535409 0.748554
v -0.071421 1.652979 0.096794
v 0.140981 1.605556 0.123265
v -0.135308 1.331171 0.355691
v 0.088490 1.332464 0.342465
v 0.227459 1.381390 0.090961
v -0.036739 2.009614 1.029529
v -0.187141 2.040051 0.986025
v -0.265285 2.006242 0.751543
v -0.211468 2.177494 0.717965
v -0.065179 2.210460 0.653422
v 0.094862 2.193364 0.680023
v 0.181413 1.954337 0.737646
v 0.190642 2.029719 0.892738
v 0.117688 2.035040 0.993393
vt 0.081890 1.000000
vt 0.146416 1.000000
vt 0.031087 1.000000
vt 0.167450 1.000000
vt 0.311853 1.000000
vt 0.216497 1.000000
vt 0.387490 1.000000
vt 0.469651 1.000000
vt 0.708606 1.000000
vt 0.765919 1.000000
vt 0.707914 1.000000
vt 0.351476 1.000000
vt 0.300887 1.000000
vt 0.144884 1.000000
vt 0.108060 1.000000
vt 0.614604 1.000000
vt 0.584241 1.000000
vt 0.485179 1.000000
vt 0.020233 1.000000
vt 0.015108 1.000000
vt 0.389284 1.000000
vt 0.643417 1.000000
vt 0.670233 1.000000
vt 0.556187 1.000000
vt 0.211663 1.000000
vt 0.193034 1.000000
vt 0.112639 1.000000
vt 0.890073 1.000000
vt 0.961543 1.000000
vt 0.831654 1.000000
vt 0.080507 1.000000
vt 0.017121 1.000000
vt 0.416120 1.000000
vt 0.327592 1.000000
vt 0.231154 1.000000
vt 0.716057 1.000000
vt 0.695556 1.000000
vt 0.438602 1.000000
vt 0.466057 1.000000
vt 0.440193 1.000000
vt 0.389583 1.000000
vt 0.131653 1.000000
vt 0.450918 1.000000
vt 0.174723 1.000000
vt 0.173614 1.000000
vt 0.158943 1.000000
vt 0.000401 1.000000
vt 0.028557 1.000000
vt 0.010048 1.000000
vt 0.545938 1.000000
vt 0.559807 1.000000
vt 0.533943 1.000000
vt 0.278557 1.000000
vt 0.262792 1.000000
vt 0.252693 1.000000
vt 0.080825 1.000000
vt 0.091057 1.000000
vt 0.065193 1.000000
vt 0.919321 1.000000
vt 0.860357 1.000000
vt 0.802975 1.000000
vt 1.000000 1.000000
vt 0.977353 1.000000
vt 0.631701 1.000000
vt 0.572776 1.000000
vt 0.532392 1.000000
vt 0.484906 1.000000
vt 0.965932 1.000000
vt 0.856429 1.000000
vt 0.280517 1.000000
vt 0.953272 1.000000
vt 0.935829 1.000000
vt 0.837269 1.000000
vt 0.691917 1.000000
vt 0.989587 1.000000
vt 0.490265 1.000000
vt 0.528836 1.000000
vt 0.000000 1.000000
vt 0.877693 1.000000
vt 0.887561 1.000000
vt 0.903557 1.000000
vt 0.895580 1.000000
vt 0.740999 1.000000
vt 0.608551 1.000000
vt 0.332019 1.000000
vt 0.341057 1.000000
vt 0.315193 1.000000
vt 0.334821 0.401382
vt 0.082070 0.308034
vt 0.312015 0.124052
vt 0.769049 1.000000
vt 0.778557 1.000000
vt 0.752693 1.000000
vt 0.341057 1.000000
vt 0.721443 1.000000
vt 0.737603 1.000000
vt 0.548724 1.000000
vt 0.073860 1.000000
vt 0.361101 1.000000
vt 0.422117 1.000000
vt 0.000000 1.000000
vn 0.4093 -0.8007 0.4375
vn 0.9720 0.2230 -0.0740
vn 0.6465 0.7601 -0.0649
vn -0.9888 0.1123 -0.0987
vn 0.9618 0.1578 -0.2237
vn 0.8133 -0.4010 0.4217
vn -0.2700 0.5766 -0.7711
vn 0.2013 -0.6682 0.7162
vn 0.5103 0.5074 -0.6943
vn -0.4841 0.1222 -0.8664
vn 0.8073 -0.0525 0.5879
vn -0.5607 -0.0106 0.8279
vn 0.2499 -0.1608 0.9548
vn 0.6532 0.0545 -0.7552
vn -0.9939 0.1005 -0.0444
vn 0.9787 0.0086 -0.2050
vn -0.6493 0.7603 -0.0194
vn 0.2496 0.7666 -0.5917
vn 0.6471 0.2368 -0.7247
vn 0.5256 0.4429 0.7263
vn 0.2463 0.7731 -0.5845
vn 0.4759 0.7417 0.4727
vn -0.0223 0.6460 0.7630
vn -0.0784 0.9284 -0.3631
vn 0.6327 0.7589 0.1544
vn 0.1640 0.8393 0.5184
vn 0.4883 0.7455 -0.4536
vn -0.7402 -0.6013 0.3007
vn 0.2044 -0.7755 0.5973
vn -0.1502 -0.8487 0.5071
vn 0.8125 -0.4368 0.3860
vn -0.8427 0.4627 -0.2753
vn 0.9574 0.2755 -0.0864
vn -0.1253 0.9705 -0.2062
vn -0.4305 -0.5814 0.6904
vn 0.9780 -0.0261 0.2072
vn -0.4980 -0.8640 0.0741
vn -0.9728 -0.1975 -0.1207
vn -0.6210 0.7429 -0.2499
vn -0.9916 0.1126 -0.0634
vn -0.3199 -0.2927 0.9011
vn -0.8139 -0.0934 0.5734
vn 0.3797 0.2177 -0.8991
vn 0.1898 0.3494 -0.9175
vn 0.3479 -0.3672 0.8626
vn -0.4432 0.3551 -0.8231
vn 0.9979 -0.0554 -0.0325
vn 0.2476 0.8580 -0.4499
vn -0.6748 -0.6981 0.2394
vn -0.1425 -0.8907 0.4318
vn 0.0250 -0.9434 0.3307
vn -0.3276 0.9241 -0.1965
vn -0.8854 -0.3042 0.3513
vn 0.7983 0.4238 -0.4280
vn 0.9857 0.1207 -0.1173
vn -0.7493 0.4278 -0.5055
vn -0.6685 0.5062 -0.5448
vn 0.9171 -0.2074 0.3404
vn -0.2146 0.6168 -0.7573
vn -0.3705 0.6642 0.6493
vn 0.3675 -0.5553 0.7460
vn 0.4037 0.6022 -0.6888
vn 0.0692 -0.0865 0.9938
vn 0.9312 -0.0241 0.3637
vn -0.4157 0.0690 -0.9069
vn 0.7490 -0.0253 0.6621
vn 0.1212 0.0204 -0.9924
vn 0.8403 0.5421 0.0062
vn -0.3019 -0.1449 0.9423
vn 0.6417 0.0659 -0.7641
vn -0.6870 0.0741 -0.7229
vn -0.7640 0.6383 0.0944
vn -0.4942 0.6662 -0.5585
vn -0.2339 0.7912 -0.5651
vn 0.0974 0.5004 0.8603
vn 0.3965 0.9180 -0.0073
vn 0.0424 0.9635 0.2645
vn -0.2384 0.9416 0.2378
vn 0.1456 0.9846 0.0968
vn -0.3039 0.9446 0.1238
vn -0.0820 0.9479 -0.3077
vn 0.4213 -0.7759 0.4696
vn -0.4325 -0.7133 0.5515
vn 0.6374 -0.7419 0.2079
vn 0.9236 -0.3232 0.2061
vn -0.9960 0.0567 -0.0697
vn -0.9393 -0.2761 0.2038
vn 0.5399 0.6965 -0.4726
vn 0.5498 0.8314 -0.0799
vn 0.0291 -0.9765 0.2134
vn -0.6284 0.7378 -0.2466
vn 0.2274 0.9732 -0.0332
vn -0.6792 -0.7166 0.1582
vn 0.7531 0.6564 -0.0454
vn -0.9947 0.0640 -0.0799
vn -0.2947 0.9421 -0.1600
vn 0.8428 0.1832 -0.5061
vn -0.9286 -0.0608 0.3661
vn 0.2661 -0.3277 0.9065
vn -0.4068 -0.3250 0.8538
vn -0.2039 0.2728 -0.9402
vn 0.7901 -0.1905 0.5827
vn -0.7889 0.1301 -0.6006
s off
f 124/128/122 88/129/122 82/130/122
f 125/131/123 87/132/123 115/133/123
f 122/134/124 86/135/124 87/132/124
f 114/136/125 91/137/125 128/138/125
f 113/139/126 132/140/126 115/133/126
f 115/133/127 95/141/127 117/142/127
f 116/143/128 92/144/128 118/145/128
f 117/142/129 89/146/129 120/147/129
f 118/145/130 94/148/130 113/139/130
f 129/149/131 98/150/131 99/151/131
f 133/152/132 103/153/132 134/154/132
f 127/155/133 96/156/133 97/157/133
f 134/154/134 105/158/134 126/159/134
f 131/160/135 102/161/135 132/140/135
f 128/138/136 97/157/136 98/150/136
f 132/140/137 102/161/137 104/162/137
f 98/150/138 106/163/138 107/164/138
f 101/165/139 99/166/139 100/167/139
f 101/165/140 100/168/140 102/161/140
f 103/153/141 109/169/141 105/158/141
f 99/166/142 108/170/142 100/167/142
f 103/171/143 111/172/143 109/173/143
f 96/174/144 109/175/144 112/176/144
f 99/177/145 107/178/145 108/179/145
f 100/180/146 111/181/146 103/182/146
f 109/183/147 111/184/147 112/185/147
f 86/135/148 118/145/148 113/139/148
f 83/186/149 119/187/149 84/188/149
f 82/130/150 117/142/150 120/147/150
f 82/189/151 120/190/151 83/186/151
f 88/129/152 115/133/152 117/142/152
f 114/136/153 116/143/153 85/191/153
f 87/132/154 113/139/154 115/133/154
f 76/192/155 121/193/155 77/194/155
f 89/195/156 90/196/156 119/187/156 120/190/156
f 80/197/157 87/132/157 125/131/157
f 73/198/158 123/199/158 74/200/158
f 74/200/159 84/188/159 75/201/159
f 75/201/160 85/191/160 76/192/160
f 91/137/161 97/157/161 128/138/161
f 89/195/162 126/202/162 127/155/162
f 90/196/163 127/155/163 97/157/163
f 93/203/164 131/160/164 94/148/164
f 93/203/165 130/204/165 131/160/165
f 95/141/166 134/154/166 89/146/166
f 92/144/167 129/149/167 130/204/167
f 132/140/168 104/162/168 133/152/168
f 122/134/169 121/193/169 86/135/169
f 123/199/170 83/186/170 84/188/170
f 123/199/171 82/189/171 83/186/171
f 123/205/172 124/128/172 82/130/172
f 121/193/173 85/191/173 86/135/173
f 91/137/174 119/187/174 90/196/174
f 113/139/175 94/148/175 132/140/175
f 115/133/176 132/140/176 133/152/176
f 116/143/177 114/136/177 128/138/177
f 116/143/178 128/138/178 92/144/178
f 115/133/179 133/152/179 95/141/179
f 118/145/180 92/144/180 93/203/180
f 106/206/181 97/207/181 96/208/181 112/209/181
f 117/142/182 95/141/182 89/146/182
f 118/145/183 93/203/183 94/148/183
f 126/159/184 105/158/184 96/174/184
f 133/152/185 104/162/185 103/153/185
f 130/204/186 129/149/186 99/151/186
f 134/154/187 103/153/187 105/158/187
f 101/165/188 131/160/188 130/204/188 99/151/188
f 103/182/189 104/162/189 102/161/189 100/180/189
f 127/155/190 126/202/190 96/156/190
f 131/160/191 101/165/191 102/161/191
f 129/149/192 128/138/192 98/150/192
f 98/150/193 97/157/193 106/210/193
f 99/151/194 98/150/194 107/211/194
f 118/145/195 86/135/195 85/191/195 116/143/195
f 105/158/196 109/175/196 96/174/196
f 100/212/197 108/213/197 111/214/197
f 112/215/198 111/216/198 110/217/198
f 106/218/199 112/219/199 110/220/199
f 108/213/200 110/221/200 111/214/200
f 107/222/201 106/210/201 110/223/201
f 108/179/202 107/178/202 110/224/202
f 82/130/203 88/129/203 117/142/203
f 83/186/204 120/190/204 119/187/204
f 88/129/205 124/128/205 81/225/205 125/131/205
f 88/129/206 125/131/206 115/133/206
f 84/188/207 91/137/207 114/136/207
f 84/188/208 119/187/208 91/137/208
f 87/132/209 86/135/209 113/139/209
f 79/226/210 78/227/210 122/134/210
f 124/128/211 123/205/211 73/228/211 81/225/211
f 75/201/212 114/136/212 85/191/212
f 121/193/213 122/134/213 78/227/213 77/194/213
f 74/200/214 123/199/214 84/188/214
f 122/134/215 87/132/215 80/197/215 79/226/215
f 75/201/216 84/188/216 114/136/216
f 76/192/217 85/191/217 121/193/217
f 94/148/218 131/160/218 132/140/218
f 91/137/219 90/196/219 97/157/219
f 89/146/220 134/154/220 126/159/220
f 90/196/221 89/195/221 127/155/221
f 93/203/222 92/144/222 130/204/222
f 95/141/223 133/152/223 134/154/223
f 92/144/224 128/138/224 129/149/224
