# Blender v2.90.1 OBJ File: ''
# www.blender.org
mtllib Ground04.mtl
o Plane
v 29.384769 0.000000 29.384769
v -29.384769 0.000000 29.384769
v 29.961342 -0.000617 -4.202088
v 30.021214 0.000317 -10.212514
v -0.413066 0.000010 -29.998169
v -27.806074 -0.001436 -29.984787
v -29.997536 -0.000241 27.811453
v 4.901588 -0.000109 29.985022
v 15.227709 0.000139 30.000669
v 24.877369 0.272633 -1.239824
v 22.553757 0.038702 4.679252
v 18.864986 0.043687 -26.729040
v 22.344032 1.129440 -3.418679
v 15.604456 2.580591 -17.434830
v 15.471734 3.211104 -14.422803
v 15.570543 3.384990 -7.177120
v 15.272161 1.844832 -0.816315
v 12.157748 3.961862 -13.345200
v 11.975854 4.727004 -10.265427
v 12.232151 4.017774 -3.722330
v 12.282851 3.591025 2.604172
v 12.293594 2.716887 7.858537
v 12.777075 0.156626 27.033361
v 7.902133 1.877077 -17.950161
v 8.015190 3.006305 18.667015
v 9.084488 1.507871 21.440405
v 5.372298 2.548756 22.797251
v 0.494875 5.256485 -14.560575
v 3.675605 7.886891 -9.121425
v 4.505628 10.436636 4.571293
v 3.472223 10.430114 13.363617
v 3.194541 9.213375 16.676332
v 2.499994 4.056415 23.020853
v -2.481348 5.522244 -16.621202
v -1.951171 6.079030 -13.329592
v -0.280829 11.340078 4.310149
v -4.377563 1.061378 -26.400591
v -4.504494 4.600336 -20.375416
v -2.734801 10.560008 6.708646
v -7.437140 1.178318 26.068136
v -11.255219 0.837023 -25.996813
v -7.386947 4.054533 -20.175598
v -9.760627 1.313932 24.473148
v -10.824817 0.307620 26.713816
v -14.457256 0.807473 -23.006090
v -14.285483 2.631006 -13.396536
v -12.491235 3.009333 -7.140323
v -12.968226 4.027814 8.130949
v -18.903112 0.087401 -21.471968
v -18.667992 0.850403 -14.353400
v 29.981560 0.000000 27.865826
v 30.000618 0.000363 -0.573994
v 30.009817 0.001025 -13.231907
v 29.985449 -0.001313 -27.853260
v 27.953754 -0.000040 -29.952572
v -29.988556 0.000000 -27.844591
v -27.865826 -0.000002 29.981560
v 27.512833 0.078565 -13.574913
v 27.276468 0.220037 -4.514677
v 27.692043 0.045850 -0.760303
v 27.855526 -0.003155 29.975582
v 21.421288 0.305711 -21.015583
v 22.450632 0.032094 20.139544
v 23.677710 0.006392 23.672056
v 24.549992 0.005998 -24.511744
v 17.873589 0.137848 -25.334118
v 19.221575 1.197865 -18.774143
v 19.397276 0.299359 3.227861
v 17.492130 0.274189 22.512695
v 17.445377 0.063319 26.663776
v 15.781077 0.518271 -23.566145
v 18.103182 0.365076 18.875135
v 16.065485 0.246825 24.670692
v 11.688137 0.054045 -28.412552
v 12.310879 0.628317 -23.495686
v 10.425697 5.298357 -6.951182
v 11.935448 1.020532 21.672758
v 6.291171 0.302656 -24.326870
v 8.135492 4.924291 -11.814490
v 8.404084 5.948289 -7.669947
v 9.760260 5.068856 6.818594
v 4.118658 0.437802 27.686441
v 6.257801 9.041884 8.054572
v -3.002087 0.243418 -28.588928
v -0.211533 11.512817 7.743410
v -0.164617 11.442911 11.452427
v -0.612317 10.899774 15.026716
v -1.566796 8.473497 19.782814
v 0.614375 1.387897 26.379534
v -7.469301 0.203069 28.838533
v -6.714503 4.720938 -10.215234
v -11.957327 0.077105 27.966154
v -6.928946 4.701854 -17.967876
v -11.251234 4.962988 1.011608
v -10.106501 5.567842 4.824467
v -12.428261 0.000147 29.999500
v -14.843575 0.000076 -29.999134
v -18.561983 0.739757 16.275360
v -17.778566 0.067083 -25.235529
v -18.895905 0.938245 -1.545069
v -24.256392 0.002476 18.528673
v -20.332829 0.004579 -24.460310
v -22.802917 0.071480 -15.242457
v -22.414667 0.113901 -4.643667
v -22.617516 0.182928 6.867143
v -26.788578 0.001450 4.127374
v 26.045441 0.229964 -12.992589
v 16.512213 0.000627 -30.006220
v 23.621351 0.047083 -22.152575
v 25.618580 0.520779 -10.426975
v 27.007725 0.329129 -8.020592
v 24.480061 0.003139 6.024146
v 22.155533 0.816568 -14.688929
v 20.446545 2.226766 -6.635961
v 20.858818 0.130852 3.457927
v 20.739006 0.100753 19.948223
v 17.661373 2.876319 -9.399375
v 17.395233 0.913826 0.281576
v 14.806966 1.412428 8.507850
v 15.544279 0.906414 12.671699
v 12.940397 0.180276 -26.580030
v 7.063541 8.426080 -0.588540
v 10.532365 1.683300 18.501842
v 4.613868 0.057268 -27.240622
v 7.192046 0.916759 -20.775873
v 4.591207 2.250799 -18.130033
v 2.089405 0.579731 -24.945972
v 3.798434 8.564552 -7.254235
v 3.404089 10.588786 2.647539
v -2.440922 4.476131 -20.426037
v 0.742598 9.277596 -5.959923
v 1.413968 11.298699 4.068103
v 1.556754 11.409990 6.885999
v 1.774871 11.307420 12.901059
v 0.650814 10.116590 17.152866
v -4.144331 5.490535 -16.686512
v -4.132489 5.880387 -11.138576
v -1.364591 9.832028 -3.440211
v -2.970281 9.416121 16.613003
v -3.963037 7.208420 20.264894
v -3.297606 10.260467 1.206504
v -8.489706 5.507384 11.827653
v -9.646038 4.147177 18.311062
v -12.393575 0.162312 -28.551956
v -10.706467 3.393944 -15.400711
v -8.981646 4.051239 -6.450547
v -13.082500 3.131533 15.496396
v -15.760161 0.341776 -24.378931
v -15.551539 0.760551 -19.484888
v -17.704496 1.462000 3.877519
v -21.525454 0.066127 18.363789
v -20.850506 0.200843 -15.882411
v -20.631393 0.358116 -12.195908
v -20.907183 0.374836 -1.928874
v -20.024702 0.717282 7.987423
v -20.639711 0.346089 14.355511
v -24.380440 0.008916 -16.754465
v -24.330389 0.014966 -3.140571
v -24.528759 0.037969 4.984314
v 7.219374 0.304542 26.823421
v -15.943027 0.025765 25.985252
v 29.384769 0.000000 -29.384769
v 5.261460 8.233039 15.233284
v -21.962772 0.117476 16.395351
v -29.384769 0.000000 -29.384769
vt 0.034055 0.999862
vt 0.000000 1.000000
vt 0.000000 0.965562
vt 0.244336 0.918804
vt 0.290241 0.958699
vt 0.206803 0.944164
vt 0.411559 1.001805
vt 0.245284 1.000917
vt 0.519391 0.935796
vt 0.646380 0.968750
vt 0.442842 0.957425
vt 0.609511 0.936611
vt 0.702200 0.916034
vt 0.695340 0.960910
vt 0.710497 1.002021
vt 0.760249 0.927251
vt 0.904634 0.813138
vt 0.965562 1.000000
vt 0.032890 0.000000
vt 0.223842 -0.000781
vt 0.000000 0.000000
vt -0.000004 0.034660
vt 0.084401 0.088778
vt 0.000054 0.273431
vt 0.072479 0.326112
vt 0.044987 0.365197
vt 0.068905 0.268477
vt 0.039780 0.420062
vt 0.084676 0.480844
vt 0.038815 0.493060
vt 0.187084 0.054483
vt 0.100407 0.138906
vt 0.140530 0.152295
vt 0.129109 0.257203
vt 0.151425 0.357781
vt 0.152690 0.569186
vt 0.119796 0.576579
vt 0.000102 0.489054
vt 0.203233 0.078017
vt 0.161547 0.210432
vt 0.196007 0.362282
vt 0.139399 0.451760
vt 0.199749 0.508066
vt 0.187500 0.584047
vt 0.125000 0.834923
vt 0.286128 0.062500
vt 0.239968 0.102605
vt 0.253675 0.203784
vt 0.238298 0.273794
vt 0.235275 0.373248
vt 0.250000 0.508175
vt 0.273779 0.696459
vt 0.236373 0.678335
vt 0.197911 0.860470
vt 0.304964 0.031250
vt 0.265108 0.290393
vt 0.302195 0.335348
vt 0.325796 0.371396
vt 0.295688 0.537302
vt 0.312771 0.784453
vt 0.193158 0.799246
vt 0.305862 0.865074
vt 0.426437 0.037507
vt 0.393905 0.085019
vt 0.299608 0.106532
vt 0.373489 0.300749
vt 0.371337 0.357401
vt 0.292163 0.425794
vt 0.408677 0.470251
vt 0.478336 0.560531
vt 0.356954 0.631894
vt 0.304978 0.647346
vt 0.375000 0.796684
vt 0.344555 0.853697
vt 0.372273 0.947948
vt 0.470505 0.077074
vt 0.381485 0.140606
vt 0.428731 0.188209
vt 0.365893 0.196367
vt 0.478032 0.335404
vt 0.438458 0.623557
vt 0.452214 0.723034
vt 0.416238 0.877387
vt 0.539705 0.031250
vt 0.567800 0.144406
vt 0.497518 0.250483
vt 0.552942 0.260636
vt 0.492837 0.525668
vt 0.530868 0.682915
vt 0.493059 0.680992
vt 0.575402 0.440967
vt 0.531250 0.389066
vt 0.445730 0.397255
vt 0.531250 0.551724
vt 0.531250 0.592650
vt 0.562500 0.725850
vt 0.531250 0.760397
vt 0.491126 0.756967
vt 0.476319 0.876324
vt 0.563125 0.209758
vt 0.593750 0.209716
vt 0.593750 0.291791
vt 0.625181 0.287734
vt 0.597802 0.502053
vt 0.562500 0.556701
vt 0.598729 0.601301
vt 0.562500 0.663669
vt 0.562500 0.608516
vt 0.592564 0.751248
vt 0.577626 0.805473
vt 0.737401 0.004982
vt 0.715494 0.031924
vt 0.708824 0.489500
vt 0.696825 0.634026
vt 0.681946 0.675729
vt 0.685852 0.772224
vt 0.592554 0.820673
vt 0.636935 0.151696
vt 0.751399 0.139092
vt 0.636635 0.203172
vt 0.772759 0.186491
vt 0.706110 0.266673
vt 0.746389 0.269162
vt 0.804110 0.560997
vt 0.736053 0.626575
vt 0.733342 0.743657
vt 0.816128 0.759346
vt 0.684351 0.880804
vt 0.839762 0.100648
vt 0.798927 0.087941
vt 0.812500 0.138654
vt 0.767366 0.113177
vt 0.842235 0.225851
vt 0.813582 0.281492
vt 0.725370 0.273688
vt 0.810707 0.424364
vt 0.835524 0.614859
vt 0.043909 0.265845
vt 0.904949 0.217907
vt 0.873634 0.245442
vt 0.843750 0.296610
vt 0.843750 0.452497
vt 0.875000 0.614671
vt 0.854823 0.801427
vt 0.965058 -0.000002
vt 0.906250 0.447599
vt 0.875000 0.422994
vt 0.937469 0.568947
vt 0.906250 0.583046
vt 0.860680 0.759127
vt 1.000000 0.034812
vt 1.000007 0.964613
vt 1.000000 1.000000
vt 0.118401 0.885214
vt 0.000000 0.329791
vt 0.000000 0.429965
vt 0.092621 0.595652
vt 0.156250 0.830951
vt 0.506878 0.000000
vt 0.587477 0.062673
vt 0.587941 0.148852
vt 0.678266 0.063212
vt 0.671398 0.357012
vt 0.843750 0.739730
vt 1.000000 0.000000
vn 0.0001 1.0000 0.0003
vn -0.0024 1.0000 -0.0009
vn -0.0003 1.0000 -0.0000
vn 0.0691 0.9939 0.0857
vn 0.0253 0.9952 0.0947
vn 0.0331 0.9985 0.0421
vn 0.0299 0.9884 0.1490
vn 0.0121 0.9994 0.0329
vn 0.0653 0.8122 0.5797
vn -0.0410 0.9718 0.2322
vn 0.0860 0.9537 0.2882
vn -0.2005 0.8761 0.4384
vn -0.1381 0.9712 0.1940
vn -0.0443 0.9974 0.0568
vn -0.0216 0.9992 0.0339
vn -0.0486 0.9976 0.0488
vn -0.0142 0.9998 0.0074
vn -0.0001 1.0000 0.0001
vn 0.0000 1.0000 -0.0002
vn 0.0050 0.9998 -0.0157
vn 0.0000 1.0000 0.0007
vn 0.0005 1.0000 -0.0001
vn 0.0074 0.9999 -0.0064
vn 0.0392 0.9991 -0.0146
vn 0.2484 0.9651 -0.0832
vn 0.1792 0.9836 -0.0200
vn 0.1297 0.9899 -0.0566
vn 0.1437 0.9886 0.0454
vn 0.1155 0.9866 0.1150
vn 0.0449 0.9985 0.0313
vn 0.0207 0.9992 -0.0331
vn 0.0468 0.9983 -0.0348
vn 0.1395 0.9827 -0.1220
vn 0.2540 0.9602 -0.1161
vn 0.2410 0.9675 0.0765
vn 0.0810 0.9952 0.0548
vn 0.0331 0.9994 0.0113
vn 0.0292 0.9995 0.0145
vn 0.0485 0.9954 -0.0820
vn 0.2559 0.9465 -0.1963
vn 0.2855 0.9574 -0.0433
vn 0.1812 0.9601 0.2127
vn 0.2404 0.9594 0.1472
vn 0.1510 0.9862 0.0676
vn 0.0240 0.9997 0.0040
vn 0.0094 0.9944 -0.1046
vn 0.0738 0.9754 -0.2074
vn 0.1522 0.9547 -0.2556
vn 0.2550 0.9554 -0.1490
vn 0.2951 0.9471 0.1258
vn 0.4130 0.9001 0.1384
vn 0.3756 0.9225 0.0888
vn 0.2488 0.9670 0.0541
vn 0.1073 0.9919 0.0675
vn -0.0007 0.9991 -0.0432
vn 0.0805 0.9530 -0.2920
vn 0.2452 0.9622 -0.1181
vn 0.4262 0.9044 -0.0186
vn 0.6042 0.7927 0.0809
vn 0.3188 0.9367 0.1446
vn 0.1275 0.9912 0.0344
vn 0.1182 0.9828 0.1416
vn 0.0260 0.9962 -0.0822
vn 0.0305 0.9892 -0.1434
vn -0.0215 0.9756 -0.2185
vn 0.1953 0.9069 -0.3732
vn 0.4104 0.8934 -0.1827
vn 0.5024 0.8607 0.0822
vn 0.5389 0.8383 -0.0823
vn 0.4811 0.8761 -0.0307
vn 0.6891 0.7091 0.1494
vn 0.5008 0.8510 0.1578
vn 0.5658 0.7622 0.3144
vn 0.2697 0.9203 0.2832
vn 0.0632 0.9830 0.1723
vn 0.1587 0.9468 -0.2797
vn 0.0354 0.9629 -0.2675
vn 0.2344 0.8954 -0.3785
vn 0.0126 0.9295 -0.3686
vn 0.2193 0.8902 -0.3992
vn 0.6851 0.7262 0.0565
vn 0.6701 0.6674 0.3247
vn 0.4158 0.7622 0.4961
vn 0.0354 0.9776 -0.2073
vn 0.1831 0.9064 -0.3806
vn 0.2198 0.8966 -0.3845
vn -0.0544 0.9644 -0.2586
vn 0.2940 0.9425 -0.1590
vn 0.2283 0.9601 0.1611
vn 0.5190 0.8278 0.2130
vn -0.2290 0.9408 -0.2497
vn -0.0022 0.9565 -0.2917
vn 0.2794 0.9189 -0.2784
vn 0.1362 0.9836 -0.1181
vn 0.1738 0.9846 -0.0182
vn -0.2099 0.9494 0.2336
vn 0.1510 0.8638 0.4806
vn 0.4549 0.7552 0.4718
vn 0.3575 0.6738 0.6467
vn 0.1208 0.9675 -0.2222
vn -0.1506 0.9777 -0.1460
vn -0.3730 0.9094 -0.1840
vn -0.3958 0.9117 -0.1102
vn -0.4050 0.9056 -0.1253
vn -0.1338 0.9869 -0.0894
vn -0.4692 0.8824 0.0341
vn -0.2080 0.9758 0.0678
vn -0.1516 0.9884 -0.0014
vn -0.4641 0.8507 0.2468
vn -0.0593 0.8024 0.5938
vn -0.0252 0.9988 -0.0425
vn -0.0508 0.9887 -0.1408
vn -0.4872 0.8690 -0.0860
vn -0.5110 0.8581 0.0493
vn -0.5216 0.8481 0.0922
vn -0.5065 0.8152 0.2807
vn -0.3340 0.7801 0.5291
vn -0.2210 0.9258 -0.3067
vn -0.2997 0.9380 -0.1739
vn -0.2934 0.9473 -0.1287
vn -0.2784 0.9525 -0.1237
vn -0.3264 0.9420 -0.0779
vn -0.3138 0.9472 -0.0661
vn -0.4002 0.9163 -0.0161
vn -0.4201 0.9060 0.0514
vn -0.3893 0.9011 0.1909
vn -0.2567 0.9585 0.1236
vn -0.3542 0.8677 0.3486
vn -0.0154 0.9998 -0.0098
vn -0.0619 0.9970 -0.0455
vn -0.0950 0.9944 -0.0466
vn -0.1643 0.9782 -0.1265
vn -0.1245 0.9907 -0.0543
vn -0.2812 0.9564 -0.0786
vn -0.3131 0.9475 -0.0639
vn -0.3314 0.9428 -0.0360
vn -0.2962 0.9550 0.0099
vn 0.0534 0.9983 -0.0229
vn -0.0145 0.9999 -0.0043
vn -0.0560 0.9983 -0.0144
vn -0.1999 0.9797 -0.0113
vn -0.2113 0.9773 -0.0122
vn -0.1240 0.9923 0.0017
vn -0.0676 0.9955 0.0666
vn -0.0001 1.0000 -0.0003
vn -0.0326 0.9995 -0.0026
vn -0.1018 0.9948 -0.0031
vn -0.0074 1.0000 -0.0003
vn -0.0392 0.9992 -0.0011
vn -0.1020 0.9940 0.0376
vn 0.0007 1.0000 0.0001
vn -0.0002 1.0000 0.0001
vn 0.0001 1.0000 -0.0002
vn 0.0081 0.9999 0.0042
vn 0.0795 0.9967 -0.0172
vn 0.0734 0.9972 0.0152
vn 0.0095 0.9999 0.0027
vn 0.0570 0.9983 0.0145
vn 0.0279 0.9949 -0.0967
vn 0.0282 0.9194 -0.3922
vn -0.0580 0.9292 -0.3650
vn -0.1440 0.9437 -0.2979
vn -0.4693 0.8640 -0.1823
vn -0.1955 0.9804 0.0227
vn 0.0011 1.0000 0.0004
g Plane_Plane_Material.001
usemtl Material.001
s 1
f 61/1/1 1/2/2 51/3/3
f 73/4/4 23/5/5 70/6/6
f 8/7/7 9/8/8 23/5/5
f 89/9/9 90/10/10 82/11/11
f 40/12/12 90/10/10 89/9/9
f 44/13/13 90/10/10 40/12/12
f 92/14/14 96/15/15 90/10/10
f 161/16/16 96/15/15 92/14/14
f 101/17/17 57/18/18 96/15/15
f 55/19/19 108/20/20 162/21/21
f 162/21/21 108/20/20 54/22/22
f 65/23/23 53/24/24 54/22/22
f 110/25/25 111/26/26 107/27/27
f 59/28/28 10/29/29 60/30/30
f 12/31/31 109/32/32 65/23/23
f 62/33/33 107/27/27 109/32/32
f 113/34/34 110/25/25 107/27/27
f 111/26/26 114/35/35 59/28/28
f 10/29/29 115/36/36 60/30/30
f 60/30/30 11/37/37 52/38/38
f 66/39/39 62/33/33 109/32/32
f 67/40/40 113/34/34 62/33/33
f 117/41/41 114/35/35 110/25/25
f 13/42/42 118/43/43 10/29/29
f 118/43/43 68/44/44 115/36/36
f 11/37/37 115/36/36 63/45/45
f 121/46/46 71/47/47 66/39/39
f 71/47/47 62/33/33 66/39/39
f 14/48/48 15/49/49 67/40/40
f 114/35/35 16/50/50 13/42/42
f 16/50/50 17/51/51 118/43/43
f 118/43/43 119/52/52 120/53/53
f 69/54/54 73/4/4 70/6/6
f 74/55/55 121/46/46 12/31/31
f 18/56/56 15/49/49 14/48/48
f 18/56/56 19/57/57 15/49/49
f 19/57/57 76/58/58 16/50/50
f 17/51/51 21/59/59 119/52/52
f 120/53/53 123/60/60 72/61/61
f 69/54/54 77/62/62 73/4/4
f 74/55/55 124/63/63 121/46/46
f 121/46/46 78/64/64 75/65/65
f 79/66/66 19/57/57 18/56/56
f 80/67/67 76/58/58 19/57/57
f 20/68/68 122/69/69 21/59/59
f 122/69/69 30/70/70 21/59/59
f 21/59/59 81/71/71 22/72/72
f 81/71/71 25/73/73 22/72/72
f 22/72/72 25/73/73 123/60/60
f 123/60/60 26/74/74 77/62/62
f 123/60/60 25/73/73 26/74/74
f 26/74/74 82/11/11 77/62/62
f 77/62/62 160/75/75 23/5/5
f 127/76/76 125/77/77 78/64/64
f 126/78/78 79/66/66 24/79/79
f 29/80/80 80/67/67 79/66/66
f 30/70/70 83/81/81 81/71/71
f 81/71/71 163/82/82 25/73/73
f 25/73/73 27/83/83 26/74/74
f 26/74/74 27/83/83 82/11/11
f 27/83/83 89/9/9 82/11/11
f 84/84/84 127/76/76 124/63/63
f 130/85/85 126/78/78 127/76/76
f 28/86/86 79/66/66 126/78/78
f 28/86/86 29/80/80 79/66/66
f 35/87/87 29/80/80 28/86/86
f 129/88/88 30/70/70 122/69/69
f 30/70/70 134/89/89 31/90/90
f 83/81/81 31/90/90 163/82/82
f 130/85/85 28/86/86 126/78/78
f 35/87/87 138/91/91 131/92/92
f 131/92/92 128/93/93 29/80/80
f 131/92/92 129/88/88 128/93/93
f 132/94/94 30/70/70 129/88/88
f 30/70/70 133/95/95 134/89/89
f 87/96/96 135/97/97 134/89/89
f 32/98/98 135/97/97 33/99/99
f 34/100/100 136/101/101 35/87/87
f 35/87/87 137/102/102 138/91/91
f 137/102/102 91/103/103 138/91/91
f 138/91/91 141/104/104 36/105/105
f 39/106/106 86/107/107 85/108/108
f 139/109/109 88/110/110 87/96/96
f 97/111/111 144/112/112 84/84/84
f 91/103/103 94/113/113 141/104/104
f 95/114/114 142/115/115 39/106/106
f 143/116/116 140/117/117 139/109/109
f 42/118/118 45/119/119 93/120/120
f 93/120/120 149/121/121 145/122/122
f 149/121/121 46/123/123 145/122/122
f 95/114/114 150/124/124 48/125/125
f 48/125/125 142/115/115 95/114/114
f 147/126/126 143/116/116 142/115/115
f 98/127/127 43/128/128 147/126/126
f 98/127/127 44/13/13 43/128/128
f 97/111/111 102/129/129 99/130/130
f 99/130/130 49/131/131 148/132/132
f 149/121/121 152/133/133 50/134/134
f 149/121/121 50/134/134 46/123/123
f 46/123/123 50/134/134 47/135/135
f 47/135/135 100/136/136 94/113/113
f 100/136/136 150/124/124 94/113/113
f 150/124/124 155/137/137 48/125/125
f 155/137/137 98/127/127 48/125/125
f 53/24/24 65/23/23 109/32/32 58/138/138
f 101/17/17 96/15/15 161/16/16
f 99/130/130 102/129/129 49/131/131
f 102/129/129 157/139/139 103/140/140
f 152/133/133 103/140/140 153/141/141
f 154/142/142 150/124/124 100/136/136
f 154/142/142 105/143/143 155/137/137
f 101/17/17 161/16/16 151/144/144
f 6/145/145 102/129/129 97/111/111
f 102/129/129 6/145/145 157/139/139
f 158/146/146 104/147/147 103/140/140
f 158/146/146 106/148/148 159/149/149
f 106/148/148 101/17/17 159/149/149
f 101/17/17 151/144/144 164/150/150
f 56/151/151 7/152/152 6/145/145
f 7/152/152 101/17/17 106/148/148
f 101/17/17 7/152/152 57/18/18
f 57/18/18 7/152/152 2/153/153
f 61/1/1 64/154/154 9/8/8
f 64/154/154 70/6/6 9/8/8
f 70/6/6 23/5/5 9/8/8
f 23/5/5 160/75/75 8/7/7
f 160/75/75 82/11/11 8/7/7
f 82/11/11 90/10/10 8/7/7
f 90/10/10 96/15/15 8/7/7
f 44/13/13 92/14/14 90/10/10
f 108/20/20 65/23/23 54/22/22
f 4/155/155 53/24/24 58/138/138 107/27/27
f 59/28/28 3/156/156 4/155/155 111/26/26
f 107/27/27 111/26/26 4/155/155
f 60/30/30 52/38/38 3/156/156 59/28/28
f 51/3/3 52/38/38 112/157/157 61/1/1
f 63/45/45 64/154/154 112/157/157 11/37/37
f 109/32/32 107/27/27 58/138/138
f 62/33/33 113/34/34 107/27/27
f 110/25/25 114/35/35 111/26/26
f 59/28/28 114/35/35 13/42/42
f 59/28/28 13/42/42 10/29/29
f 60/30/30 115/36/36 11/37/37
f 52/38/38 11/37/37 112/157/157
f 61/1/1 112/157/157 64/154/154
f 72/61/61 116/158/158 115/36/36 68/44/44
f 12/31/31 66/39/39 109/32/32
f 67/40/40 15/49/49 113/34/34
f 15/49/49 117/41/41 113/34/34
f 113/34/34 117/41/41 110/25/25
f 117/41/41 16/50/50 114/35/35
f 10/29/29 118/43/43 115/36/36
f 70/6/6 64/154/154 63/45/45 116/158/158
f 63/45/45 115/36/36 116/158/158
f 116/158/158 72/61/61 69/54/54
f 67/40/40 62/33/33 71/47/47 14/48/48
f 116/158/158 69/54/54 70/6/6
f 108/20/20 12/31/31 65/23/23
f 12/31/31 121/46/46 66/39/39
f 14/48/48 71/47/47 75/65/65 18/56/56
f 15/49/49 19/57/57 117/41/41
f 117/41/41 19/57/57 16/50/50
f 13/42/42 16/50/50 118/43/43
f 118/43/43 17/51/51 119/52/52
f 68/44/44 118/43/43 120/53/53
f 68/44/44 120/53/53 72/61/61
f 108/20/20 74/55/55 12/31/31
f 121/46/46 75/65/65 71/47/47
f 20/68/68 17/51/51 16/50/50 76/58/58
f 18/56/56 75/65/65 24/79/79
f 123/60/60 120/53/53 119/52/52 22/72/72
f 17/51/51 20/68/68 21/59/59
f 119/52/52 21/59/59 22/72/72
f 77/62/62 69/54/54 72/61/61 123/60/60
f 124/63/63 74/55/55 108/20/20 5/159/159
f 73/4/4 77/62/62 23/5/5
f 20/68/68 76/58/58 80/67/67 122/69/69
f 121/46/46 124/63/63 78/64/64
f 75/65/65 78/64/64 125/77/77
f 75/65/65 125/77/77 24/79/79
f 24/79/79 79/66/66 18/56/56
f 79/66/66 80/67/67 19/57/57
f 33/99/99 27/83/83 163/82/82 32/98/98
f 21/59/59 30/70/70 81/71/71
f 77/62/62 82/11/11 160/75/75
f 127/76/76 126/78/78 125/77/77
f 125/77/77 126/78/78 24/79/79
f 29/80/80 128/93/93 80/67/67
f 128/93/93 122/69/69 80/67/67
f 81/71/71 83/81/81 163/82/82
f 25/73/73 163/82/82 27/83/83
f 5/159/159 84/84/84 124/63/63
f 124/63/63 127/76/76 78/64/64
f 128/93/93 129/88/88 122/69/69
f 83/81/81 30/70/70 31/90/90
f 163/82/82 31/90/90 32/98/98
f 132/94/94 131/92/92 138/91/91 36/105/105
f 27/83/83 33/99/99 89/9/9
f 84/84/84 37/160/160 127/76/76
f 37/160/160 130/85/85 127/76/76
f 130/85/85 34/100/100 28/86/86
f 34/100/100 35/87/87 28/86/86
f 29/80/80 35/87/87 131/92/92
f 133/95/95 132/94/94 36/105/105 85/108/108
f 131/92/92 132/94/94 129/88/88
f 30/70/70 132/94/94 133/95/95
f 86/107/107 134/89/89 133/95/95 85/108/108
f 135/97/97 32/98/98 31/90/90 134/89/89
f 86/107/107 87/96/96 134/89/89
f 93/120/120 136/101/101 38/161/161 42/118/118
f 135/97/97 87/96/96 88/110/110
f 33/99/99 135/97/97 88/110/110
f 33/99/99 88/110/110 89/9/9
f 5/159/159 97/111/111 84/84/84
f 37/160/160 38/161/161 130/85/85
f 34/100/100 130/85/85 38/161/161 136/101/101
f 91/103/103 137/102/102 136/101/101 93/120/120
f 35/87/87 136/101/101 137/102/102
f 39/106/106 85/108/108 36/105/105 141/104/104
f 138/91/91 91/103/103 141/104/104
f 87/96/96 86/107/107 39/106/106 139/109/109
f 89/9/9 88/110/110 140/117/117 40/12/12
f 39/106/106 143/116/116 139/109/109
f 139/109/109 140/117/117 88/110/110
f 41/162/162 37/160/160 84/84/84 144/112/112
f 42/118/118 38/161/161 37/160/160 41/162/162
f 95/114/114 39/106/106 141/104/104 94/113/113
f 93/120/120 145/122/122 91/103/103
f 91/103/103 145/122/122 47/135/135
f 91/103/103 47/135/135 146/163/163
f 91/103/103 146/163/163 94/113/113
f 40/12/12 140/117/117 143/116/116 43/128/128
f 142/115/115 143/116/116 39/106/106
f 45/119/119 42/118/118 41/162/162 148/132/132
f 43/128/128 44/13/13 40/12/12
f 144/112/112 97/111/111 99/130/130
f 41/162/162 144/112/112 148/132/132
f 144/112/112 99/130/130 148/132/132
f 152/133/133 149/121/121 148/132/132 49/131/131
f 93/120/120 45/119/119 149/121/121
f 145/122/122 46/123/123 47/135/135
f 146/163/163 47/135/135 94/113/113
f 94/113/113 150/124/124 95/114/114
f 48/125/125 147/126/126 142/115/115
f 147/126/126 43/128/128 143/116/116
f 44/13/13 98/127/127 164/150/150 151/144/144
f 45/119/119 148/132/132 149/121/121
f 47/135/135 50/134/134 100/136/136
f 48/125/125 98/127/127 147/126/126
f 92/14/14 44/13/13 151/144/144 161/16/16
f 103/140/140 152/133/133 49/131/131 102/129/129
f 100/136/136 50/134/134 153/141/141 154/142/142
f 50/134/134 152/133/133 153/141/141
f 154/142/142 153/141/141 103/140/140 104/147/147
f 156/164/164 155/137/137 105/143/143 164/150/150
f 154/142/142 104/147/147 105/143/143
f 150/124/124 154/142/142 155/137/137
f 106/148/148 158/146/146 157/139/139 6/145/145
f 155/137/137 156/164/164 98/127/127
f 156/164/164 164/150/150 98/127/127
f 159/149/149 105/143/143 104/147/147 158/146/146
f 157/139/139 158/146/146 103/140/140
f 164/150/150 105/143/143 159/149/149 101/17/17
f 165/165/165 56/151/151 6/145/145
f 6/145/145 7/152/152 106/148/148
